PathFileType	4	(X/Y/Z)	./resultDataOpenSim/trcMotMarkerGrf/sub06/qtm-03-08.trc
DataRate	CameraRate	NumFrames	NumMarkers	Units	OrigDataRate	OrigDataStartFrame	OrigNumFrames
250.000000	250.000000	10	24	m	250.000000	129	512
Frame#	Time	L.Toe.Tip			R.Toe.Tip			L.Ankle.Lat			R.Ankle.Lat			L.Ankle.Med			R.Ankle.Med			L.Heel			R.Heel			L.Knee.Lat			R.Knee.Lat			L.Knee.Med			R.Knee.Med			L.Thigh.Upper			R.Thigh.Upper			L.ASIS			R.ASIS			V.Sacral			L.Acromium			R.Acromium			C7			L.Elbow			R.Elbow			L.Wrist.Lat			R.Wrist.Lat
		X1	Y1	Z1	X2	Y2	Z2	X3	Y3	Z3	X4	Y4	Z4	X5	Y5	Z5	X6	Y6	Z6	X7	Y7	Z7	X8	Y8	Z8	X9	Y9	Z9	X10	Y10	Z10	X11	Y11	Z11	X12	Y12	Z12	X13	Y13	Z13	X14	Y14	Z14	X15	Y15	Z15	X16	Y16	Z16	X17	Y17	Z17	X18	Y18	Z18	X19	Y19	Z19	X20	Y20	Z20	X21	Y21	Z21	X22	Y22	Z22	X23	Y23	Z23	X24	Y24	Z24

129	0.512	-0.20119146	0.099142821	-0.037939899	-0.80329424	0.036027469	0.13115035	-0.32998813	0.094480718	-0.053568167	-0.93752433	0.065654728	0.14278343	-0.32653301	0.11460421	0.030686013	-0.91068704	0.080348508	0.057538277	-0.38419607	0.044524335	0.0033168213	-0.99030873	0.042133483	0.076990161	-0.42558156	0.45436444	-0.067311155	-0.78258798	0.4244425	0.17269744	-0.43588043	0.4469702	0.056219351	-0.80775057	0.42282352	0.040829496	-0.62052275	0.79926627	-0.11558181	-0.6817452	0.77265053	0.22462248	-0.56082541	0.84153415	-0.060206997	-0.57107408	0.82390152	0.18523462	-0.74685304	0.90441523	0.0643342	-0.64727762	1.3181311	-0.1221554	-0.62573065	1.3062476	0.23670345	-0.71223454	1.3449689	0.062085001	-0.75397659	1.0229143	-0.1669326	-0.67350658	0.99510873	0.33416164	-0.65930455	0.80281162	-0.22747328	-0.44425538	0.88675803	0.31638122
130	0.516	-0.18741246	0.10116647	-0.037300716	-0.80322174	0.035942943	0.13112166	-0.31610789	0.094742125	-0.05368059	-0.9371921	0.065787204	0.14270185	-0.31382747	0.11447843	0.030503677	-0.91033169	0.080280873	0.057405217	-0.36985111	0.043576216	0.0019463173	-0.99020477	0.042392594	0.076944312	-0.41810851	0.45194989	-0.066327129	-0.77842205	0.42299887	0.17267001	-0.42860087	0.44438444	0.057288588	-0.80347914	0.42169979	0.040666083	-0.61316687	0.79604206	-0.11561248	-0.67555277	0.77018155	0.22459448	-0.5536675	0.83851379	-0.060201343	-0.56506488	0.8211813	0.18566213	-0.74170675	0.90185024	0.062715787	-0.64137148	1.3153023	-0.12247552	-0.62008513	1.3033721	0.23680997	-0.70650213	1.3424427	0.061932004	-0.74818848	1.0202386	-0.16681946	-0.66626876	0.99204262	0.3346005	-0.65564575	0.7997859	-0.22814348	-0.43613143	0.88577107	0.31596911
131	0.52	-0.17412982	0.10309551	-0.036669204	-0.80314407	0.03586151	0.13109644	-0.30269222	0.094970327	-0.053721621	-0.93683906	0.065940122	0.1426138	-0.30157884	0.11423652	0.030352205	-0.90992352	0.080223621	0.057248728	-0.35588892	0.042574214	0.00044820616	-0.99007946	0.042700935	0.076869686	-0.41052329	0.44959397	-0.065364669	-0.77421358	0.42151968	0.17264782	-0.42139847	0.44186066	0.058318478	-0.79905458	0.42051905	0.04054475	-0.60571739	0.79274634	-0.11561391	-0.66932037	0.76769056	0.22452987	-0.54650004	0.83543319	-0.060168272	-0.55910901	0.81845653	0.18615001	-0.73715183	0.89961652	0.060748305	-0.63542222	1.3124499	-0.12282513	-0.61437693	1.3004684	0.23692755	-0.70077841	1.3399422	0.06176825	-0.74227665	1.0174671	-0.16675174	-0.65890807	0.98891415	0.33498557	-0.65178696	0.7967611	-0.22874179	-0.42804916	0.88469072	0.31555023
132	0.524	-0.16133196	0.1048442	-0.036013321	-0.80306695	0.03578322	0.13107308	-0.2897496	0.095131441	-0.053692703	-0.93646977	0.066122151	0.14252123	-0.28971091	0.11388031	0.030296694	-0.90941635	0.080177125	0.057044339	-0.3423467	0.041548131	-0.00082737006	-0.98991681	0.043075205	0.076738912	-0.40285819	0.44731919	-0.06445369	-0.76999412	0.41999991	0.17261101	-0.41425303	0.43938457	0.059296459	-0.79449499	0.41928631	0.040447859	-0.59824171	0.7893786	-0.1156043	-0.66304782	0.76518029	0.22442111	-0.53929633	0.83230084	-0.060096894	-0.55311059	0.81574379	0.18664917	-0.73248015	0.8974463	0.058488053	-0.62940333	1.3095868	-0.12319528	-0.60856368	1.2975549	0.23705252	-0.69502568	1.3374804	0.061578861	-0.73639786	1.0146699	-0.16668479	-0.65136105	0.98571157	0.33530428	-0.64775834	0.79373137	-0.22928073	-0.42003278	0.88352591	0.31513108
133	0.528	-0.14899165	0.10636139	-0.035311789	-0.80299323	0.035710574	0.13105218	-0.27726626	0.095195917	-0.053598159	-0.93610297	0.066335552	0.14242546	-0.27818226	0.11341129	0.030359323	-0.90880313	0.080152794	0.05679946	-0.32924372	0.040500813	-0.0016696756	-0.98968713	0.043523554	0.076519838	-0.39514116	0.44512775	-0.063613569	-0.76573856	0.41843764	0.17256511	-0.40715702	0.43693801	0.060212089	-0.78982433	0.41800131	0.0403534	-0.59074707	0.78595731	-0.11557735	-0.65674363	0.76265777	0.22426949	-0.53200887	0.82913004	-0.059977451	-0.54703902	0.81305765	0.18716423	-0.72714332	0.89512095	0.056461777	-0.62331898	1.3067311	-0.12357975	-0.60267316	1.294636	0.23718415	-0.68911607	1.3350276	0.061336696	-0.73059023	1.0118893	-0.16660632	-0.64366592	0.98245196	0.33558517	-0.64363966	0.79068826	-0.22978724	-0.41208607	0.88228297	0.3147186
134	0.532	-0.13708356	0.10762066	-0.034583287	-0.80292152	0.035645939	0.13103431	-0.26522559	0.095116866	-0.05344241	-0.93574891	0.066585268	0.14232051	-0.26697887	0.11282342	0.030513168	-0.90817674	0.080168626	0.056568573	-0.31662915	0.039411595	-0.0021257674	-0.98937517	0.044045708	0.076204751	-0.38739939	0.44300437	-0.062857201	-0.76137522	0.41684824	0.17252877	-0.40012703	0.43451327	0.061062055	-0.78506779	0.41665732	0.040252476	-0.58320574	0.78252269	-0.11552058	-0.65043003	0.76013686	0.22409134	-0.52459364	0.8259268	-0.059813308	-0.54090477	0.81040635	0.18768847	-0.72094069	0.89262101	0.055164174	-0.61722916	1.3039021	-0.12398994	-0.59674685	1.2917125	0.23732062	-0.68295536	1.3325295	0.061039217	-0.7247619	1.0091207	-0.16654058	-0.63596283	0.97918116	0.33588318	-0.63947388	0.78763669	-0.23027104	-0.40418257	0.88096698	0.31430711
135	0.536	-0.12559519	0.10859053	-0.033887272	-0.8028526	0.035588307	0.13101841	-0.25360357	0.094838806	-0.05323106	-0.93539198	0.066883857	0.14219273	-0.25607193	0.11211717	0.030727356	-0.90766735	0.080234698	0.056408183	-0.30453161	0.038258027	-0.0023248405	-0.98903039	0.04464393	0.075860167	-0.37967728	0.44092961	-0.062193996	-0.75685617	0.41525961	0.17250688	-0.39317478	0.43210166	0.06185043	-0.78023992	0.41524712	0.040153126	-0.57560279	0.77912121	-0.11543548	-0.64413789	0.75763562	0.22391426	-0.51703775	0.82268713	-0.059612331	-0.53474309	0.80779893	0.18818738	-0.71379492	0.89000302	0.054628663	-0.61120555	1.3011189	-0.12444349	-0.59080212	1.2887896	0.23745291	-0.67664362	1.329971	0.060727074	-0.71881958	1.0063428	-0.16650469	-0.6283577	0.97593948	0.33620808	-0.63524602	0.784596	-0.23073204	-0.39629509	0.87958238	0.31388115
136	0.54	-0.11452176	0.10922293	-0.033281389	-0.80279147	0.035534944	0.13100287	-0.24237825	0.094322667	-0.052972066	-0.93501016	0.067239926	0.14202962	-0.24543043	0.11129542	0.0309832	-0.90727042	0.080343254	0.05630193	-0.29290586	0.037017841	-0.002334466	-0.98875483	0.045322835	0.075602001	-0.37201431	0.43889222	-0.061619533	-0.75222416	0.41367996	0.17248596	-0.3862762	0.42968039	0.062576231	-0.77533741	0.41377524	0.040060005	-0.56793556	0.77579487	-0.11532574	-0.63789185	0.7551689	0.22376316	-0.50936041	0.81940588	-0.059374693	-0.52859087	0.80524467	0.18865681	-0.70563791	0.88732757	0.054551926	-0.60525526	1.2983945	-0.1249352	-0.58484305	1.2858771	0.2375653	-0.67039006	1.3273916	0.060437361	-0.71273616	1.0035427	-0.16648145	-0.62084829	0.97273998	0.33651153	-0.63090481	0.78159061	-0.23116846	-0.38841784	0.87812859	0.313424
137	0.544	-0.10385729	0.10947439	-0.032789283	-0.80274113	0.035486374	0.13098793	-0.23154206	0.093551773	-0.052673877	-0.93459924	0.067652672	0.1418292	-0.23504857	0.11034768	0.03126708	-0.90682884	0.08048258	0.05616844	-0.28168939	0.035671872	-0.0021651541	-0.98858177	0.046080263	0.07545303	-0.36437539	0.43689206	-0.061105833	-0.7475885	0.41208574	0.17245206	-0.37937684	0.42722454	0.063223197	-0.77034684	0.41225664	0.039959352	-0.5601993	0.77257399	-0.11518856	-0.63170022	0.75274337	0.22364952	-0.50161082	0.81608864	-0.059094471	-0.52244788	0.80274465	0.18914438	-0.69663368	0.88467901	0.054551751	-0.59932054	1.2957238	-0.12543233	-0.57887236	1.2829894	0.23764164	-0.6643014	1.3248348	0.060166709	-0.7065243	1.0007326	-0.16643021	-0.61338238	0.96958073	0.33674844	-0.62641563	0.77863731	-0.23157879	-0.38055968	0.87660131	0.31292234
138	0.548	-0.093592686	0.1093311	-0.032407209	-0.80269667	0.035447856	0.13097654	-0.22110037	0.092522891	-0.05234615	-0.93417189	0.06812269	0.14160038	-0.224936	0.10924996	0.031571255	-0.90623006	0.080663369	0.055958335	-0.27085824	0.03420596	-0.0018233554	-0.98841674	0.046915063	0.07529157	-0.35664732	0.43492964	-0.060612593	-0.74301285	0.41045449	0.17240341	-0.37242986	0.42473362	0.063772056	-0.76526036	0.41069997	0.039835891	-0.55239698	0.76947216	-0.11502383	-0.62555726	0.75035862	0.22357227	-0.49386346	0.81275231	-0.05876487	-0.51627965	0.8002929	0.18969814	-0.68722591	0.88211365	0.054370888	-0.593329	1.2930893	-0.12589726	-0.57288848	1.280141	0.23766607	-0.65833663	1.3223124	0.05989379	-0.70020517	0.99795062	-0.16633271	-0.60592319	0.96646134	0.3369166	-0.62179019	0.77573807	-0.23196543	-0.37273832	0.87500172	0.31238156
